<svg width="250" height="250" viewBox="0 0 250 250" fill="none" xmlns="http://www.w3.org/2000/svg">
<mask id="mask0_2484_1055" style="mask-type:luminance" maskUnits="userSpaceOnUse" x="0" y="0" width="250" height="250">
<path d="M250 0H0V250H250V0Z" fill="white"/>
</mask>
<g mask="url(#mask0_2484_1055)">
<path fill-rule="evenodd" clip-rule="evenodd" d="M200 116C200 129.75 211.25 141 225 141C238.75 141 250 129.75 250 116V120C250 136.57 236.57 150 220 150H200V200C200 227.61 177.61 250 150 250H50C22.39 250 0 227.61 0 200V50C0 22.39 22.39 0 50 0H200C223.04 0 242.42 15.58 248.22 36.78C244.53 27.56 235.5 21 225 21C211.25 21 200 32.25 200 46V116ZM81 51.34H111.5V45.66H81V51.34Z" fill="#FD8613"/>
<path d="M236.5 50V120" stroke="#FD8613" stroke-width="4" stroke-miterlimit="10"/>
<path d="M244.58 42.02L236.08 50.52" stroke="#FD8613" stroke-width="4" stroke-miterlimit="10"/>
<path d="M228.18 42.0601L236.68 50.5601" stroke="#FD8613" stroke-width="4" stroke-miterlimit="10"/>
<path d="M15 30C23.28 30 30 23.28 30 15C30 6.72 23.28 0 15 0C6.72 0 0 6.72 0 15C0 23.28 6.72 30 15 30Z" fill="#FD8613"/>
<path d="M200 197C208.28 197 215 190.29 215 182C215 173.71 208.28 167 200 167C191.72 167 185 173.72 185 182C185 190.28 191.72 197 200 197Z" fill="#FD8613"/>
</g>
</svg>
