<svg width="22" height="23" viewBox="0 0 22 23" fill="none" xmlns="http://www.w3.org/2000/svg">
<g id="_&#229;&#155;&#190;&#229;&#177;&#130;_1" clip-path="url(#clip0_2454_1246)">
<path id="Subtract" fill-rule="evenodd" clip-rule="evenodd" d="M17.6 10.708C17.6 11.918 18.59 12.908 19.8 12.908C21.01 12.908 22 11.918 22 10.708V11.06C22 12.5182 20.8182 13.7 19.36 13.7H17.6V18.1C17.6 20.5297 15.6297 22.5 13.2 22.5H4.4C1.97032 22.5 0 20.5297 0 18.1V4.9C0 2.47032 1.97032 0.5 4.4 0.5H17.6C19.6275 0.5 21.333 1.87104 21.8434 3.73664C21.5186 2.92528 20.724 2.348 19.8 2.348C18.59 2.348 17.6 3.338 17.6 4.548V10.708ZM7.12799 5.01794H9.81199V4.51794H7.12799V5.01794Z" fill="white"/>
<path id="Vector" d="M20.812 4.8999V11.0599" stroke="white" stroke-width="0.5" stroke-miterlimit="10"/>
<path id="Vector_2" d="M21.5231 4.19775L20.7751 4.94575" stroke="white" stroke-width="0.5" stroke-miterlimit="10"/>
<path id="Vector_3" d="M20.0798 4.20117L20.8278 4.94917" stroke="white" stroke-width="0.5" stroke-miterlimit="10"/>
<path id="Vector_4" d="M1.32 3.14C2.04902 3.14 2.64 2.54902 2.64 1.82C2.64 1.09098 2.04902 0.5 1.32 0.5C0.590984 0.5 0 1.09098 0 1.82C0 2.54902 0.590984 3.14 1.32 3.14Z" fill="white"/>
<path id="Vector_5" d="M17.6 17.8358C18.329 17.8358 18.92 17.2448 18.92 16.5158C18.92 15.7868 18.329 15.1958 17.6 15.1958C16.871 15.1958 16.28 15.7868 16.28 16.5158C16.28 17.2448 16.871 17.8358 17.6 17.8358Z" fill="white"/>
</g>
<defs>
<clipPath id="clip0_2454_1246">
<rect width="22" height="22" fill="white" transform="translate(0 0.5)"/>
</clipPath>
</defs>
</svg>
