<svg width="22" height="23" viewBox="0 0 22 23" fill="none" xmlns="http://www.w3.org/2000/svg">
<g id="_&#229;&#155;&#190;&#229;&#177;&#130;_1" clip-path="url(#clip0_1588_193)">
<path id="Vector" d="M19.8 12.908C18.59 12.908 17.6 11.918 17.6 10.708V4.548C17.6 3.338 18.59 2.348 19.8 2.348C20.724 2.348 21.5186 2.92528 21.8434 3.73664C21.333 1.87104 19.6275 0.5 17.6 0.5H4.4C1.97032 0.5 0 2.47032 0 4.9V18.1C0 20.5297 1.97032 22.5 4.4 22.5H13.2C15.6297 22.5 17.6 20.5297 17.6 18.1V13.7H19.36C20.8182 13.7 22 12.5182 22 11.06V10.708C22 11.918 21.01 12.908 19.8 12.908Z" fill="#FD8613"/>
<path id="Vector_2" d="M7.12793 4.76794H9.81193" stroke="black" stroke-width="0.5" stroke-miterlimit="10"/>
<path id="Vector_3" d="M20.812 4.90002V11.06" stroke="black" stroke-width="0.5" stroke-miterlimit="10"/>
<path id="Vector_4" d="M21.5229 4.19775L20.7749 4.94575" stroke="black" stroke-width="0.5" stroke-miterlimit="10"/>
<path id="Vector_5" d="M20.0801 4.20129L20.8281 4.94929" stroke="black" stroke-width="0.5" stroke-miterlimit="10"/>
<path id="Vector_6" d="M1.32 3.14C2.04902 3.14 2.64 2.54902 2.64 1.82C2.64 1.09098 2.04902 0.5 1.32 0.5C0.590984 0.5 0 1.09098 0 1.82C0 2.54902 0.590984 3.14 1.32 3.14Z" fill="#FD8613"/>
<path id="Vector_7" d="M17.5998 17.836C18.3288 17.836 18.9198 17.2451 18.9198 16.516C18.9198 15.787 18.3288 15.196 17.5998 15.196C16.8708 15.196 16.2798 15.787 16.2798 16.516C16.2798 17.2451 16.8708 17.836 17.5998 17.836Z" fill="#FD8613"/>
</g>
<defs>
<clipPath id="clip0_1588_193">
<rect width="22" height="22" fill="white" transform="translate(0 0.5)"/>
</clipPath>
</defs>
</svg>
