<svg width="227" height="87" viewBox="0 0 227 87" fill="none" xmlns="http://www.w3.org/2000/svg">
<path d="M56.352 5.984C56.352 6.688 56.224 7.35999 55.968 7.99999C55.52 9.088 55.232 9.952 55.104 10.592V73.952C55.104 73.76 55.264 74.944 55.584 77.504C55.968 80.448 55.584 82.368 54.432 83.264C53.28 84.16 50.688 84.416 46.656 84.032C44.352 83.84 41.696 83.232 38.688 82.208C34.784 80.992 32.64 79.712 32.256 78.368C32.32 77.472 32.224 76.096 31.968 74.24C28.384 64.768 24.224 54.368 19.488 43.04V71.456C19.488 71.968 19.712 72.64 20.16 73.472C20.736 74.56 21.024 75.136 21.024 75.2C21.344 76.16 21.504 77.12 21.504 78.08C21.504 80.64 20.352 81.92 18.048 81.92C15.808 81.92 12.64 81.28 8.544 80C4.704 78.72 2.528 77.728 2.016 77.024C1.248 76 1.248 74.688 2.016 73.088C2.784 71.488 3.168 70.496 3.168 70.112V9.92C3.168 9.536 3.072 8.96 2.88 8.192C2.688 7.424 2.656 6.816 2.784 6.368C3.424 4.192 4.672 2.72 6.528 1.952C6.848 1.824 7.552 1.75999 8.64 1.75999C11.136 1.75999 13.696 2.07999 16.32 2.71999C19.712 3.488 22.08 4.576 23.424 5.984C25.216 7.904 27.552 13.76 30.432 23.552C33.952 35.584 36.704 43.712 38.688 47.936V10.208C38.688 9.696 38.56 8.992 38.304 8.096C38.048 7.136 37.92 6.4 37.92 5.888C37.92 5.504 37.984 5.15199 38.112 4.832C38.432 3.744 39.648 2.944 41.76 2.432C43.424 1.984 45.024 1.824 46.56 1.952C48.032 2.08 49.792 2.432 51.84 3.008C54.784 3.904 56.288 4.896 56.352 5.984ZM95.4353 82.88C94.0913 83.008 92.5873 82.816 90.9233 82.304C89.2593 81.856 87.6273 81.376 86.0273 80.864C84.1073 80.352 81.0993 79.424 77.0033 78.08C71.8833 75.84 68.0113 71.424 65.3873 64.832C63.0833 59.008 61.9313 51.968 61.9313 43.712C61.9313 36.992 63.0833 29.152 65.3873 20.192C68.5233 8.16 72.5873 2.144 77.5793 2.144C78.0273 2.144 78.6353 2.272 79.4033 2.528C80.2353 2.72 80.8753 2.848 81.3233 2.912C86.0593 1.568 89.0993 0.895994 90.4433 0.895994C91.0833 0.895994 91.7233 0.927996 92.3633 0.991999C100.043 1.952 106.091 6.752 110.507 15.392C114.475 23.2 116.459 32.512 116.459 43.328C116.459 53.568 114.667 62.368 111.083 69.728C107.243 77.728 102.027 82.112 95.4353 82.88ZM93.7073 12.512C92.2993 12.128 90.8913 14.016 89.4833 18.176C88.1393 22.336 86.7633 24.416 85.3553 24.416C85.0353 24.416 84.5553 24.256 83.9153 23.936C83.3393 23.552 82.8593 23.328 82.4753 23.264C80.2993 28.064 79.2113 34.912 79.2113 43.808C79.2113 50.784 79.9473 56.768 81.4193 61.76C83.0833 67.328 85.3873 70.4 88.3313 70.976C91.7873 71.616 94.5713 68.064 96.6833 60.32C98.5393 53.536 99.4673 45.472 99.4673 36.128C99.4673 29.792 98.9873 24.48 98.0273 20.192C97.0033 15.584 95.5633 13.024 93.7073 12.512ZM203.808 8.672C198.88 17.696 194.4 31.424 190.368 49.856C187.04 64.96 185.504 74.112 185.76 77.312C185.632 77.824 185.664 78.464 185.856 79.232C186.048 80 186.112 80.576 186.048 80.96C185.6 83.968 184.736 85.568 183.456 85.76C182.432 85.952 179.232 84.832 173.856 82.4C168.288 80.032 165.312 78.272 164.928 77.12C164.864 76.992 164.768 75.008 164.64 71.168C161.888 62.72 160.064 54.144 159.168 45.44C157.376 50.048 155.616 54.656 153.888 59.264C152.224 64.256 151.456 69.216 151.584 74.144C151.456 74.72 151.456 75.488 151.584 76.448C151.776 77.472 151.808 78.272 151.68 78.848C151.104 81.6 150.208 83.168 148.992 83.552C148.608 83.68 148.096 83.744 147.456 83.744C144.512 83.744 141.184 83.072 137.472 81.728C132.928 80.128 130.336 78.208 129.696 75.968C129.76 75.456 129.696 73.792 129.504 70.976C126.496 60.032 124.48 50.112 123.456 41.216C122.432 32.704 122.016 22.368 122.208 10.208C121.632 7.2 121.472 5.312 121.728 4.544C122.56 1.792 123.712 0.447994 125.184 0.511993C126.848 0.575996 129.504 1.568 133.152 3.488C136.8 5.408 138.752 6.944 139.008 8.096C139.072 8.48 138.976 10.304 138.72 13.568C138.464 16.512 138.336 19.232 138.336 21.728C138.336 27.168 139.264 36.064 141.12 48.416L154.56 6.272C154.688 5.44 155.072 4.288 155.712 2.816C156.48 1.856 157.44 1.27999 158.592 1.088C159.296 0.959995 161.856 1.984 166.272 4.16C170.688 6.272 172.928 7.744 172.992 8.576C172.992 9.024 172.928 11.168 172.8 15.008C172.608 19.552 172.512 23.52 172.512 26.912C172.512 35.232 173.024 42.368 174.048 48.32C175.776 39.488 178.016 30.368 180.768 20.96C182.88 13.472 184.512 8.384 185.664 5.696C186.368 2.49599 188.064 1.088 190.752 1.472C192.928 1.792 195.296 2.528 197.856 3.68C201.248 5.216 203.232 6.88 203.808 8.672ZM226.571 52.352C226.443 54.72 225.835 56.032 224.747 56.288C224.427 56.352 224.107 56.384 223.787 56.384C221.931 56.384 219.595 55.648 216.779 54.176C213.963 52.704 211.659 50.944 209.867 48.896C209.099 48.064 209.099 46.528 209.867 44.288C210.635 42.048 211.019 40.896 211.019 40.832V4.544C211.019 2.88 211.979 1.728 213.898 1.088C214.283 0.959995 214.827 0.895994 215.531 0.895994C217.323 0.895994 219.371 1.27999 221.674 2.048C223.979 2.816 225.419 3.648 225.995 4.544C226.123 4.736 226.187 6.46399 226.187 9.72799V48.896C226.187 49.28 226.251 49.856 226.379 50.624C226.507 51.328 226.571 51.904 226.571 52.352ZM226.571 66.272C226.763 66.848 226.763 68.416 226.571 70.976C226.315 74.304 226.187 76.352 226.187 77.12C226.187 79.68 226.059 81.664 225.803 83.072C225.547 84.48 224.747 85.312 223.403 85.568C222.635 85.76 220.427 85.12 216.779 83.648C212.939 82.048 210.635 80.672 209.867 79.52C209.419 78.816 209.579 77.664 210.347 76.064C210.731 75.36 210.955 74.176 211.019 72.512C210.891 71.104 210.891 68.416 211.019 64.448C211.275 62.144 212.235 61.024 213.898 61.088C215.691 61.216 218.187 61.952 221.387 63.296C224.587 64.576 226.315 65.568 226.571 66.272Z" fill="#304139"/>
</svg>
