<svg width="292" height="82" viewBox="0 0 292 82" fill="none" xmlns="http://www.w3.org/2000/svg">
<path d="M8.46023 58.0993C73.9451 46.7373 139.436 35.3749 204.921 24.0129C223.521 20.7847 242.122 17.5566 260.722 14.3285C259.76 9.74443 258.792 5.16671 257.83 0.582679C214.852 17.7814 169.138 26.2859 125.273 40.7426C112.864 44.8336 100.628 49.4271 88.7009 54.7679C81.3496 58.0576 83.4487 68.4861 91.5926 68.5137C112.714 68.5893 133.652 65.7532 154.536 62.8973C175.42 60.0414 196.655 57.1362 217.715 54.2616C216.205 49.9603 214.695 45.6531 213.185 41.3518C198.652 49.044 184.792 57.9188 171.711 67.8914C165.827 72.3768 169.315 80.584 176.241 80.8011C212.462 81.9306 248.722 80.3453 284.707 76.0561C288.511 75.601 291.547 72.4187 291.259 68.4724C290.99 64.7793 287.497 61.4635 283.676 61.92C247.696 66.2087 211.431 67.7945 175.21 66.665C176.72 70.9663 178.23 75.2735 179.74 79.5748C192.815 69.6026 206.676 60.7337 221.214 53.0352C227.451 49.732 223.385 39.2102 216.684 40.1255C195.624 43.006 174.565 45.8865 153.505 48.7612C132.445 51.6358 111.683 54.4532 90.5613 54.3775L93.4531 68.1233C135.736 49.187 181.402 40.2598 225.525 26.8205C238.043 23.0058 250.432 18.8038 262.583 13.944C265.839 12.6406 267.87 9.31261 267.083 5.81726C266.373 2.67143 263.211 -0.413862 259.691 0.198222C194.206 11.5602 128.716 22.9226 63.2308 34.2846C44.6303 37.5127 26.0298 40.7409 7.42937 43.969C3.65779 44.6231 0.578735 47.465 0.876949 51.5527C1.13434 55.0809 4.66551 58.761 8.46066 58.1051L8.46023 58.0993Z" fill="#304139"/>
</svg>
