<svg width="18" height="13" viewBox="0 0 18 13" fill="none" xmlns="http://www.w3.org/2000/svg">
<g id="Group 5">
<path id="Vector" d="M9.07174 9.60144C8.24361 9.60144 7.46481 9.27864 6.87929 8.69292C6.29357 8.10741 5.97119 7.32853 5.97119 6.50047C5.97119 5.67331 6.29357 4.89291 6.87929 4.30837C7.46481 3.72265 8.24368 3.39985 9.07174 3.39985C9.89988 3.39985 10.6791 3.72265 11.2641 4.30837C11.8498 4.89451 12.1729 5.67255 12.1729 6.50089C12.1729 7.32895 11.8497 8.10783 11.2641 8.69334C10.6791 9.27864 9.89988 9.60144 9.07174 9.60144ZM10.6863 4.88572C10.255 4.45435 9.68182 4.21661 9.07174 4.21661C8.46167 4.21661 7.8885 4.45435 7.45699 4.88572C7.02569 5.31744 6.7883 5.89032 6.7883 6.50047C6.7883 7.11096 7.02569 7.68448 7.45699 8.11557C7.8885 8.54652 8.46167 8.78426 9.07174 8.78426C9.6814 8.78426 10.255 8.54652 10.6863 8.11515C11.1181 7.68364 11.3558 7.11048 11.3558 6.5004C11.3557 5.89039 11.118 5.31744 10.6863 4.88572Z" fill="black" stroke="black" stroke-width="0.5"/>
<path id="Vector_2" d="M4.97583 10.5964C3.88198 9.50279 3.2793 8.04783 3.2793 6.50056C3.2793 4.9528 3.88156 3.49812 4.97583 2.40489L5.5536 2.98259C4.61417 3.92181 4.09648 5.17148 4.09648 6.50056C4.09648 7.82964 4.61382 9.0791 5.5536 10.0187L4.97583 10.5964Z" fill="black" stroke="black" stroke-width="0.5"/>
<path id="Vector_3" d="M13.1675 10.5964L12.5898 10.0187C13.5295 9.07903 14.0465 7.82957 14.0465 6.50056C14.0465 5.17155 13.5295 3.92181 12.5898 2.98259L13.1675 2.40489C14.262 3.49895 14.8641 4.95287 14.8637 6.50056C14.8641 8.04783 14.262 9.50244 13.1675 10.5964Z" fill="black" stroke="black" stroke-width="0.5"/>
<path id="Vector_4" d="M3.64973 11.9223L3.07203 12.5C-0.23625 9.19172 -0.23625 3.80926 3.07203 0.5L3.64973 1.0777C0.660268 4.06793 0.660268 8.93284 3.64973 11.9223Z" fill="black" stroke="black" stroke-width="0.5"/>
<path id="Vector_5" d="M15.0723 12.5L14.4946 11.9223C17.483 8.93284 17.483 4.06786 14.4946 1.07777L15.0723 0.50007C18.3789 3.80926 18.3789 9.19214 15.0723 12.5Z" fill="black" stroke="black" stroke-width="0.5"/>
</g>
</svg>
