<svg width="13" height="13" viewBox="0 0 13 13" fill="none" xmlns="http://www.w3.org/2000/svg">
<path id="Vector" d="M3.74445 10.4262C3.74445 10.125 3.47849 9.88079 3.15041 9.88079C2.82233 9.88079 2.55636 10.125 2.55636 10.4262H3.74445ZM3.15041 11.1897H2.55636C2.55636 11.1977 2.55655 11.2057 2.55694 11.2137L3.15041 11.1897ZM2.41367 11.9533L2.38341 12.498C2.40377 12.4989 2.42418 12.4989 2.44455 12.498L2.41367 11.9533ZM1.67617 11.1897L2.26965 11.2137C2.27003 11.2057 2.27022 11.1977 2.27022 11.1897H1.67617ZM2.27022 10.2902C2.27022 9.989 2.00425 9.74481 1.67617 9.74481C1.34809 9.74481 1.08213 9.989 1.08213 10.2902H2.27022ZM2.00285 9.83469C1.72883 9.66904 1.36044 9.7387 1.18001 9.99031C0.999598 10.2418 1.07548 10.5801 1.3495 10.7457L2.00285 9.83469ZM11.8313 10.7457C12.1054 10.5801 12.1813 10.2418 12.0008 9.99031C11.8204 9.7387 11.452 9.66904 11.178 9.83469L11.8313 10.7457ZM1.34063 10.7403C1.61137 10.9104 1.98106 10.8468 2.16638 10.5982C2.35169 10.3497 2.28245 10.0103 2.01171 9.84014L1.34063 10.7403ZM1.18502 9.40812L1.77906 9.41684V9.40812H1.18502ZM1.77906 5.55399C1.77906 5.25278 1.5131 5.0086 1.18502 5.0086C0.856932 5.0086 0.590975 5.25278 0.590975 5.55399H1.77906ZM10.6253 10.4262C10.6253 10.125 10.3593 9.88079 10.0312 9.88079C9.70315 9.88079 9.43718 10.125 9.43718 10.4262H10.6253ZM10.0312 11.1897L10.6226 11.2412C10.6244 11.2241 10.6253 11.2069 10.6253 11.1897H10.0312ZM11.5055 11.1897H10.9114C10.9114 11.2069 10.9123 11.2241 10.914 11.2412L11.5055 11.1897ZM12.0995 10.2902C12.0995 9.989 11.8335 9.74481 11.5055 9.74481C11.1773 9.74481 10.9114 9.989 10.9114 10.2902H12.0995ZM11.1699 9.84014C10.8992 10.0103 10.8299 10.3497 11.0153 10.5982C11.2005 10.8468 11.5703 10.9104 11.841 10.7403L11.1699 9.84014ZM11.9966 9.40812H11.4025L11.4027 9.41684L11.9966 9.40812ZM12.5907 5.55399C12.5907 5.25278 12.3247 5.0086 11.9966 5.0086C11.6685 5.0086 11.4026 5.25278 11.4026 5.55399H12.5907ZM2.98669 7.33562C2.65861 7.33562 2.39264 7.57981 2.39264 7.88101C2.39264 8.18222 2.65861 8.42641 2.98669 8.42641V7.33562ZM3.5875 8.42641C3.91559 8.42641 4.18155 8.18222 4.18155 7.88101C4.18155 7.57981 3.91559 7.33562 3.5875 7.33562V8.42641ZM9.59409 7.33562C9.26601 7.33562 9.00004 7.57981 9.00004 7.88101C9.00004 8.18222 9.26601 8.42641 9.59409 8.42641V7.33562ZM10.1949 8.42641C10.523 8.42641 10.789 8.18222 10.789 7.88101C10.789 7.57981 10.523 7.33562 10.1949 7.33562V8.42641ZM11.4026 5.55399C11.4026 5.8552 11.6685 6.09939 11.9966 6.09939C12.3247 6.09939 12.5907 5.8552 12.5907 5.55399H11.4026ZM11.8422 1.51953L11.3174 1.77526C11.3197 1.77902 11.3219 1.78275 11.3241 1.78646L11.8422 1.51953ZM11.0135 1.0454L11.0256 0.500116C11.0216 0.500036 11.0176 0.5 11.0135 0.5V1.0454ZM2.1681 1.0454V0.5C2.16407 0.5 2.16004 0.500036 2.15601 0.500116L2.1681 1.0454ZM1.33947 1.51953L1.8575 1.78646C1.85977 1.78275 1.86199 1.77902 1.86416 1.77526L1.33947 1.51953ZM0.590975 5.55399C0.590975 5.8552 0.85694 6.09939 1.18502 6.09939C1.5131 6.09939 1.77906 5.8552 1.77906 5.55399H0.590975ZM11.9966 6.09939C12.3247 6.09939 12.5907 5.8552 12.5907 5.55399C12.5907 5.25278 12.3247 5.0086 11.9966 5.0086V6.09939ZM1.18502 5.0086C0.856932 5.0086 0.590975 5.25278 0.590975 5.55399C0.590975 5.8552 0.85694 6.09939 1.18502 6.09939V5.0086ZM2.55636 10.4262V11.1897H3.74445V10.4262H2.55636ZM2.55694 11.2137C2.56248 11.3294 2.47 11.4045 2.3828 11.4086L2.44455 12.498C3.21095 12.4613 3.77682 11.8541 3.74388 11.1658L2.55694 11.2137ZM2.44395 11.4086C2.35671 11.4046 2.26411 11.3294 2.26965 11.2137L1.0827 11.1658C1.04977 11.8546 1.61644 12.462 2.38341 12.498L2.44395 11.4086ZM2.27022 11.1897V10.2902H1.08213V11.1897H2.27022ZM1.3495 10.7457C1.59204 10.8923 1.87563 10.9712 2.16658 10.9716L2.16808 9.88079C2.11071 9.88072 2.05341 9.86523 2.00285 9.83469L1.3495 10.7457ZM2.16658 10.9716H11.0135V9.88079H2.16808L2.16658 10.9716ZM11.0135 10.9716C11.3045 10.9712 11.5888 10.8923 11.8313 10.7457L11.178 9.83469C11.1274 9.86523 11.071 9.88072 11.0135 9.88079V10.9716ZM2.01171 9.84014C1.8674 9.74946 1.77601 9.59123 1.77906 9.41684L0.591047 9.39939C0.581732 9.93206 0.860291 10.4384 1.34063 10.7403L2.01171 9.84014ZM1.77906 9.40812V5.55399H0.590975V9.40812H1.77906ZM9.43718 10.4262V11.1897H10.6253V10.4262H9.43718ZM9.43979 11.1383C9.39195 11.6016 9.62656 12.057 10.0583 12.3095L10.6967 11.3896C10.6497 11.3622 10.6159 11.3061 10.6226 11.2412L9.43979 11.1383ZM10.0583 12.3095C10.4924 12.5635 11.0443 12.5635 11.4784 12.3095L10.8399 11.3896C10.7953 11.4158 10.7413 11.4158 10.6967 11.3896L10.0583 12.3095ZM11.4784 12.3095C11.9101 12.057 12.1447 11.6016 12.0968 11.1383L10.914 11.2412C10.9208 11.3061 10.8869 11.3622 10.8399 11.3896L11.4784 12.3095ZM12.0995 11.1897V10.2902H10.9114V11.1897H12.0995ZM11.841 10.7403C12.3213 10.4384 12.5999 9.93206 12.5906 9.39939L11.4027 9.41684C11.4057 9.59123 11.3142 9.74946 11.1699 9.84014L11.841 10.7403ZM12.5907 9.40812V5.55399H11.4026L11.4025 9.40812H12.5907ZM2.98669 8.42641H3.5875V7.33562H2.98669V8.42641ZM9.59409 8.42641H10.1949V7.33562H9.59409V8.42641ZM12.5907 5.55399V2.06347H11.4026V5.55399H12.5907ZM12.5907 2.06347C12.5906 1.77971 12.5115 1.50007 12.3602 1.25259L11.3241 1.78646C11.3751 1.8699 11.4025 1.96539 11.4026 2.06347H12.5907ZM12.3668 1.26379C12.1025 0.806708 11.5928 0.510719 11.0256 0.500116L11.0014 1.59067C11.1273 1.59303 11.2502 1.65899 11.3174 1.77526L12.3668 1.26379ZM11.0135 0.5H2.1681V1.59079H11.0135V0.5ZM2.15601 0.500116C1.58875 0.510719 1.07909 0.806708 0.814787 1.26379L1.86416 1.77526C1.9314 1.65899 2.0543 1.59303 2.1802 1.59067L2.15601 0.500116ZM0.821441 1.25259C0.670158 1.50007 0.591047 1.77959 0.590975 2.06335L1.77906 2.06358C1.77909 1.96551 1.80649 1.8699 1.8575 1.78646L0.821441 1.25259ZM0.590975 2.06335V5.55399H1.77906V2.06358L0.590975 2.06335ZM11.9966 5.0086H1.18502V6.09939H11.9966V5.0086Z" fill="black"/>
</svg>
