<svg width="31" height="30" viewBox="0 0 31 30" fill="none" xmlns="http://www.w3.org/2000/svg">
<path id="Vector" d="M15.0195 0C6.73613 0 0.0195312 6.71528 0.0195312 14.9993C0.0195312 23.2834 6.73547 29.9987 15.0195 29.9987C23.3043 29.9987 30.0195 23.2834 30.0195 14.9993C30.0195 6.71528 23.3043 0 15.0195 0ZM15.0195 4.48498C17.7605 4.48498 19.9815 6.70671 19.9815 9.44632C19.9815 12.1866 17.7605 14.4077 15.0195 14.4077C12.2799 14.4077 10.0588 12.1866 10.0588 9.44632C10.0588 6.70671 12.2799 4.48498 15.0195 4.48498ZM15.0162 26.077C12.2826 26.077 9.77882 25.0815 7.84765 23.4336C7.37721 23.0324 7.10576 22.444 7.10576 21.8266C7.10576 19.0481 9.3545 16.8244 12.1336 16.8244H17.9067C20.6865 16.8244 22.9267 19.0481 22.9267 21.8266C22.9267 22.4447 22.6566 23.0317 22.1855 23.433C20.255 25.0815 17.7506 26.077 15.0162 26.077Z" fill="#6A6A6A"/>
</svg>
