<svg width="16" height="13" viewBox="0 0 16 13" fill="none" xmlns="http://www.w3.org/2000/svg">
<path id="&#240;&#159;&#142;&#168;-Color" d="M13.526 0.5C14.6241 0.5 15.522 1.47825 15.5871 2.71275L15.5908 2.85629V10.1437C15.5908 11.3969 14.7336 12.4215 13.6518 12.4957L13.526 12.5H2.65561C1.55749 12.5 0.659593 11.5218 0.594589 10.2873L0.59082 10.1437V2.85629C0.59082 1.60314 1.44805 0.578482 2.52983 0.5043L2.65561 0.5H13.526ZM14.4639 5.61871H1.71632L1.71707 10.1437C1.71707 10.6983 2.08638 11.1544 2.55965 11.2092L2.65561 11.2148H13.526C14.012 11.2148 14.4117 10.7933 14.4597 10.2532L14.4646 10.1437L14.4639 5.61871ZM12.7857 8.62216C13.0967 8.62216 13.3489 8.90987 13.3489 9.26478C13.3489 9.59012 13.137 9.85899 12.8621 9.90154L12.7857 9.90741H10.9086C10.5976 9.90741 10.3455 9.61969 10.3455 9.26478C10.3455 8.93945 10.5574 8.67058 10.8322 8.62802L10.9086 8.62216H12.7857ZM13.526 1.78525H2.65561C2.16966 1.78525 1.76998 2.2067 1.72191 2.74678L1.71707 2.85629L1.71632 4.33346H14.4639L14.4646 2.85629C14.4646 2.30174 14.0953 1.84562 13.622 1.79078L13.526 1.78525Z" fill="#212121"/>
</svg>
