<svg width="15" height="15" viewBox="0 0 15 15" fill="none" xmlns="http://www.w3.org/2000/svg">
<g id="setting-2-svgrepo-com 1">
<path id="Vector" d="M12.63 12.6751H14.625M6.05046 7.53493H14.625M8.13412 2.39478H0.375M14.625 2.39478H12.63M0.375 12.6751H8.13412" stroke="white" stroke-linecap="round"/>
<path id="Vector_2" d="M12.155 12.725C12.155 13.7743 11.3043 14.625 10.255 14.625C9.20563 14.625 8.35498 13.7743 8.35498 12.725C8.35498 11.6756 9.20563 10.825 10.255 10.825C11.3043 10.825 12.155 11.6756 12.155 12.725Z" stroke="white" stroke-linecap="round"/>
<path id="Vector_3" d="M5.50508 7.5001C5.50508 8.54945 4.65442 9.4001 3.60508 9.4001C2.55574 9.4001 1.70508 8.54945 1.70508 7.5001C1.70508 6.45074 2.55574 5.6001 3.60508 5.6001C4.65442 5.6001 5.50508 6.45074 5.50508 7.5001Z" stroke="white" stroke-linecap="round"/>
<path id="Vector_4" d="M12.155 2.275C12.155 3.32434 11.3043 4.175 10.255 4.175C9.20563 4.175 8.35498 3.32434 8.35498 2.275C8.35498 1.22566 9.20563 0.375 10.255 0.375C11.3043 0.375 12.155 1.22566 12.155 2.275Z" stroke="white" stroke-linecap="round"/>
</g>
</svg>
