<svg width="16" height="15" viewBox="0 0 16 15" fill="none" xmlns="http://www.w3.org/2000/svg">
<g id="Group">
<path id="Vector" d="M13.3941 2.19668C11.9775 0.780117 10.0941 0 8.09082 0C6.0875 0 4.20409 0.780117 2.7875 2.19668C1.37091 3.61324 0.59082 5.49668 0.59082 7.5C0.59082 9.50332 1.37094 11.3867 2.7875 12.8033C4.20406 14.2199 6.0875 15 8.09082 15C10.0941 15 11.9775 14.2199 13.3941 12.8033C14.8107 11.3868 15.5908 9.50332 15.5908 7.5C15.5908 5.49668 14.8107 3.61327 13.3941 2.19668ZM13.3317 11.4451C12.8831 11.1415 12.4136 10.8792 11.9268 10.6603C12.1418 9.82187 12.2695 8.91158 12.3014 7.96875H14.6364C14.5443 9.26766 14.0726 10.4633 13.3317 11.4451ZM1.54525 7.96875H3.88027C3.91215 8.91161 4.03982 9.82189 4.2548 10.6603C3.76801 10.8792 3.2985 11.1415 2.84996 11.4451C2.10904 10.4633 1.63736 9.26766 1.54525 7.96875ZM2.84984 3.55506C3.29838 3.85863 3.76789 4.12093 4.25475 4.33992C4.03977 5.17825 3.91212 6.08845 3.88024 7.03125H1.54525C1.63736 5.7324 2.10901 4.53686 2.84984 3.55506ZM11.1561 2.30757C10.9843 1.98554 10.7987 1.69494 10.6013 1.43707C11.3944 1.76666 12.1093 2.24736 12.71 2.84323C12.3695 3.067 12.0156 3.2642 11.6508 3.43459C11.5077 3.03428 11.3424 2.65685 11.1561 2.30757ZM10.7762 3.78425C9.92044 4.07112 9.01728 4.21875 8.09082 4.21875C7.16437 4.21875 6.2612 4.07112 5.40541 3.78425C6.00491 2.07762 6.99544 0.9375 8.09082 0.9375C9.1862 0.9375 10.1767 2.07762 10.7762 3.78425ZM4.81845 7.03125C4.84938 6.20092 4.96156 5.40759 5.13887 4.6841C6.08035 4.99594 7.07299 5.15625 8.09082 5.15625C9.10865 5.15625 10.1013 4.99594 11.0428 4.6841C11.2201 5.40759 11.3323 6.20089 11.3632 7.03125H4.81845ZM11.3632 7.96875C11.3322 8.79914 11.2201 9.5925 11.0427 10.316C10.1012 10.0041 9.10856 9.84375 8.09082 9.84375C7.07308 9.84375 6.08047 10.0041 5.1389 10.316C4.96156 9.5925 4.84938 8.79914 4.81845 7.96875H11.3632ZM5.02558 2.30757C4.83931 2.65685 4.67401 3.03428 4.53084 3.43456C4.16603 3.2642 3.81219 3.06697 3.47161 2.8432C4.07229 2.2473 4.78725 1.76663 5.58031 1.43704C5.38294 1.69494 5.19731 1.98554 5.02558 2.30757ZM4.53087 11.5656C4.67401 11.9658 4.83931 12.3432 5.02555 12.6924C5.19731 13.0145 5.38291 13.3051 5.58028 13.5629C4.7873 13.2333 4.0724 12.7527 3.47176 12.1569C3.81233 11.9332 4.16612 11.736 4.53087 11.5656ZM5.40547 11.2159C6.26132 10.9289 7.16445 10.7812 8.09082 10.7812C9.01719 10.7812 9.92032 10.9289 10.7762 11.2159C10.1767 12.9224 9.18617 14.0625 8.09082 14.0625C6.99547 14.0625 6.00497 12.9224 5.40547 11.2159ZM11.1561 12.6924C11.3423 12.3432 11.5076 11.9658 11.6507 11.5656C12.0155 11.736 12.3693 11.9332 12.7099 12.1569C12.1092 12.7527 11.3943 13.2334 10.6013 13.5629C10.7987 13.3051 10.9843 13.0145 11.1561 12.6924ZM12.3014 7.03125C12.2695 6.08848 12.1418 5.17825 11.9269 4.33992C12.4137 4.12093 12.8833 3.85863 13.3318 3.55506C14.0726 4.53683 14.5442 5.73237 14.6364 7.03125H12.3014Z" fill="black"/>
</g>
</svg>
