<svg width="16" height="15" viewBox="0 0 16 15" fill="none" xmlns="http://www.w3.org/2000/svg">
<path id="Vector" fill-rule="evenodd" clip-rule="evenodd" d="M7.64102 0.995093C7.89295 0.755217 8.28869 0.755217 8.54063 0.995093L13.758 5.96404L15.3885 7.51686C15.6493 7.76521 15.6593 8.17803 15.4109 8.4389C15.1625 8.69971 14.7497 8.70975 14.4888 8.46134L13.9604 7.95805V12.8804C13.9604 13.6008 13.3764 14.1847 12.656 14.1847H9.39517H6.78647H3.5256C2.80523 14.1847 2.22126 13.6008 2.22126 12.8804V7.95805L1.69277 8.46134C1.43194 8.70975 1.01914 8.69971 0.770732 8.4389C0.522328 8.17803 0.532396 7.76521 0.793221 7.51686L2.42365 5.96404L7.64102 0.995093ZM3.5256 6.71579V12.8804H6.1343V9.61953C6.1343 8.53894 7.01023 7.66301 8.09082 7.66301C9.17141 7.66301 10.0473 8.53894 10.0473 9.61953V12.8804H12.656V6.71579L8.09082 2.36798L3.5256 6.71579ZM8.743 12.8804V9.61953C8.743 9.25934 8.45102 8.96736 8.09082 8.96736C7.73063 8.96736 7.43865 9.25934 7.43865 9.61953V12.8804H8.743Z" fill="black"/>
</svg>
