<svg width="80" height="80" viewBox="0 0 80 80" fill="none" xmlns="http://www.w3.org/2000/svg">
<g id="Frame">
<path id="Vector" d="M40.0001 56.6667C41.841 56.6667 43.3334 55.1743 43.3334 53.3333C43.3334 51.4924 41.841 50 40.0001 50C38.1591 50 36.6667 51.4924 36.6667 53.3333C36.6667 55.1743 38.1591 56.6667 40.0001 56.6667Z" stroke="#4DBAB9" stroke-width="6.5" stroke-linecap="round" stroke-linejoin="round"/>
<path id="Vector_2" d="M63.3333 33.3333H16.6667C12.9848 33.3333 10 36.318 10 39.9999V66.6666C10 70.3485 12.9848 73.3333 16.6667 73.3333H63.3333C67.0152 73.3333 70 70.3485 70 66.6666V39.9999C70 36.318 67.0152 33.3333 63.3333 33.3333Z" stroke="#4DBAB9" stroke-width="7" stroke-linecap="round" stroke-linejoin="round"/>
<path id="Vector_3" d="M23.3333 33.3334V23.3334C23.3333 18.9131 25.0892 14.6739 28.2148 11.5483C31.3404 8.4227 35.5796 6.66675 39.9999 6.66675C44.4202 6.66675 48.6594 8.4227 51.785 11.5483C54.9106 14.6739 56.6666 18.9131 56.6666 23.3334V33.3334" stroke="#4DBAB9" stroke-width="7" stroke-linecap="round" stroke-linejoin="round"/>
</g>
</svg>
