<svg width="282" height="85" viewBox="0 0 282 85" fill="none" xmlns="http://www.w3.org/2000/svg">
<path d="M8.5895 59.5757C6.45546 62.5396 5.61818 66.5707 6.16054 70.1864C7.13713 76.697 11.2412 77.6329 17.1122 76.9619C43.4432 73.9527 62.8189 44.4745 77.0265 25.0163C79.836 21.1685 87.7357 9.30002 85.5066 13.5107C82.2198 19.7191 80.7216 26.664 79.5833 33.5389C77.8101 44.2492 74.5629 58.3811 78.7737 68.908C82.1022 77.2294 90.5841 80.7565 98.7593 77.1324C108.798 72.6821 116.16 62.7656 122.41 54.1638C129.888 43.8707 136.724 31.7335 138.518 18.9226C139.188 14.1372 137.347 9.06876 132.85 6.82039C130.361 5.57571 127.34 5.5088 126.032 8.31186C124.038 12.5854 125.873 18.8921 127.225 23.0561C129.467 29.9616 133.821 34.2127 140.137 37.5872C145.426 40.4129 151.272 42.2288 157.267 42.6156C159.474 42.7579 164.949 42.0134 161.444 45.1298C154.415 51.3771 144.911 62.4699 146.06 72.7006C147.402 84.6394 170.254 70.4479 174.014 66.9904C181.51 60.0981 172.698 54.4893 165.662 53.6098C164.512 53.4661 159.447 54.58 163.276 54.803C170.114 55.2013 176.426 52.6196 183.134 52.0757C193.547 51.2314 191.453 58.8764 192.85 66.1381C193.901 71.6061 204.492 59.2203 205.974 57.7859C213.896 50.1199 211.433 71.8719 220.207 67.587C225.922 64.7959 233.411 58.205 233.162 51.053C232.972 45.6127 222.618 42.3293 218.758 40.3997" stroke="#304139" stroke-width="12" stroke-linecap="round"/>
<path d="M275.133 14.3936C275.133 23.3638 274.388 32.2754 273.792 41.2186" stroke="#304139" stroke-width="12" stroke-linecap="round"/>
<path d="M272.451 65.361C273.146 64.7523 274.13 63.18 272.451 64.0198" stroke="#304139" stroke-width="12" stroke-linecap="round"/>
</svg>
