<svg width="314" height="86" viewBox="0 0 314 86" fill="none" xmlns="http://www.w3.org/2000/svg">
<path d="M6.5376 60.0014C27.07 56.1502 149.366 33.1991 178.135 27.8462C207.27 22.425 236.381 17.0232 265.653 12.4064C278.196 10.428 290.743 8.41791 303.315 6.62848C304.683 6.43389 308.503 5.48287 307.451 6.37727C304.407 8.96463 299.162 10.196 295.586 11.8073C280.167 18.755 264.584 24.9382 248.551 30.3583C223.757 38.7405 198.618 45.9184 173.458 53.1027C160.771 56.7255 148.04 60.2735 135.506 64.4072C130.382 66.0972 125.194 67.8846 120.337 70.2624C119.5 70.6718 117.938 71.4191 117.167 72.2141C116.617 72.782 117.167 73.0491 117.689 73.1417C119.081 73.3887 120.856 73.2017 122.192 73.1417C128.054 72.8782 133.927 72.412 139.757 71.7503C158.621 69.6094 177.347 65.7895 195.913 61.8951C208.735 59.2055 221.528 55.2117 234.541 53.5471C235.327 53.4467 240.792 52.1693 238.967 54.7066C235.08 60.1095 228.981 63.9462 224.087 68.3493C222.266 69.9877 216.742 74.252 218.425 77.4316C220.395 81.1524 229.934 78.8526 232.88 78.3591C249.897 75.5081 266.858 74.2463 284.107 73.9146" stroke="#304139" stroke-width="12" stroke-linecap="round"/>
</svg>
